<svg xmlns="http://www.w3.org/2000/svg" version="1.1" xmlns:xlink="http://www.w3.org/1999/xlink" xmlns:svgjs="http://svgjs.dev/svgjs" width="1000" height="750" viewBox="0 0 1000 750"><rect width="1000" height="750" fill="#111111"></rect><g transform="matrix(0.834,0,0,0.834,82.49454545454546,115.4193570850203)"><svg viewBox="0 0 396 247" data-background-color="#111111" preserveAspectRatio="xMidYMid meet" height="623" width="1000" xmlns="http://www.w3.org/2000/svg" xmlns:xlink="http://www.w3.org/1999/xlink"><g id="tight-bounds" transform="matrix(1,0,0,1,0.2400000000000091,-0.09999999999999432)"><svg viewBox="0 0 395.52 247.2" height="247.2" width="395.52"><g><svg></svg></g><g><svg viewBox="0 0 395.52 247.2" height="247.2" width="395.52"><g transform="matrix(1,0,0,1,75.54432000000001,69.22938800773696)"><svg viewBox="0 0 244.43135999999996 108.74122398452609" height="108.74122398452609" width="244.43135999999996"><g><svg viewBox="0 0 244.43135999999996 108.74122398452609" height="108.74122398452609" width="244.43135999999996"><g><svg viewBox="0 0 244.43135999999996 108.74122398452609" height="108.74122398452609" width="244.43135999999996"><g><svg viewBox="0 0 244.43135999999996 108.74122398452609" height="108.74122398452609" width="244.43135999999996"><g><svg viewBox="0 0 244.43135999999996 108.74122398452609" height="108.74122398452609" width="244.43135999999996"><g><svg viewBox="0 0 244.43135999999996 108.74122398452609" height="108.74122398452609" width="244.43135999999996"><g transform="matrix(1,0,0,1,0,0)"><svg width="244.43135999999996" viewBox="1.600000023841858 -34.5 77.55000305175781 34.5" height="108.74122398452609" data-palette-color="#ffffff"><path d="M2.1-34.5L13.8-34.5 14.3-30.35Q13.5-29.4 11.55-28.65L11.55-28.65 11.55-5.8Q13.55-5 14.3-4.15L14.3-4.15 13.8 0 2.1 0 1.6-4.15Q2.25-5 4.35-5.8L4.35-5.8 4.35-28.65Q2.3-29.4 1.6-30.35L1.6-30.35 2.1-34.5ZM38.45-5.8L38.45-15.8 27.45-15.8 27.45-5.8Q29.45-5 30.2-4.15L30.2-4.15 29.7 0 18 0 17.5-4.15Q18.15-5 20.25-5.8L20.25-5.8 20.25-28.65Q18.2-29.4 17.5-30.35L17.5-30.35 18-34.5 29.7-34.5 30.2-30.35Q29.4-29.4 27.45-28.65L27.45-28.65 27.45-20.8 38.45-20.8 38.45-28.65Q36.4-29.4 35.7-30.35L35.7-30.35 36.2-34.5 47.9-34.5 48.4-30.35Q47.6-29.4 45.65-28.65L45.65-28.65 45.65-5.8Q47.65-5 48.4-4.15L48.4-4.15 47.9 0 36.2 0 35.7-4.15Q36.35-5 38.45-5.8L38.45-5.8ZM63.8-12L63.8-12 61.55-12 61.55-6.1Q65.2-5.3 66.09-4.15L66.09-4.15 65.59 0 52.1 0 51.6-4.15Q52.25-5 54.35-5.8L54.35-5.8 54.35-28.65Q52.3-29.4 51.6-30.35L51.6-30.35 52.1-34.5 65.34-34.5Q72.3-34.4 75.72-31.98 79.15-29.55 79.15-23.35L79.15-23.35Q79.15-12 63.8-12ZM64.55-29.05L64.55-29.05 61.55-29.05 61.55-17.45 64.9-17.45Q68.3-17.45 69.97-18.8 71.65-20.15 71.65-23.48 71.65-26.8 69.82-27.93 68-29.05 64.55-29.05Z" opacity="1" transform="matrix(1,0,0,1,0,0)" fill="#ffffff" class="undefined-text-0" data-fill-palette-color="primary" id="text-0"></path></svg></g></svg></g></svg></g></svg></g><g></g></svg></g></svg></g></svg></g><g><path d="M140.692 43.558A122.216 122.216 0 0 1 254.828 43.558L245.022 43.558A112.409 112.409 0 0 0 150.498 43.558L140.692 43.558M140.692 203.642A122.216 122.216 0 0 0 254.828 203.642L245.022 203.642A112.409 112.409 0 0 1 150.498 203.642L140.692 203.642" fill="#ffffff" stroke="transparent" data-fill-palette-color="tertiary"></path></g></svg></g><defs></defs></svg><rect width="395.52" height="247.2" fill="none" stroke="none" visibility="hidden"></rect></g></svg></g></svg>